<?xml version="1.0" encoding="UTF-8" standalone="no"?>
<svg width="250" height="250" viewport-fill="#FFFFFF" style="background-color: #FFFFFF; stroke-width: 0px;" xmlns="http://www.w3.org/2000/svg">
<path d="M36.33783 54.2406C36.33069 54.2406 36.35544 54.17674 36.316406 54.2406 36.277374 54.304462 36.1604 54.4464 36.103638 54.62378 36.046875 54.80116 36.011333 54.992664 35.97583 55.30487 35.940327 55.617077 35.918987 56.042877 35.890625 56.49701 35.862263 56.95114 35.812725 56.649525 35.805664 58.029663 35.798603 59.4098 35.841167 62.386547 35.848267 64.77783 35.855366 67.16912 35.855366 70.6673 35.848267 72.37738 35.841167 74.08746 35.816334 74.137146 35.805664 75.03833 35.794994 75.939514 35.81264 76.88687 35.78424 77.784485 35.75584 78.6821 35.72395 79.25321 35.635254 80.42401 35.54656 81.59481 35.38333 83.500084 35.252075 84.809265 35.12082 86.11845 34.957703 87.15442 34.847717 88.27911 34.737732 89.40381 34.663116 90.542725 34.592163 91.557434 34.52121 92.57214 34.421997 93.221405 34.421997 94.36737 34.421997 95.513336 34.5567 97.28016 34.592163 98.43323 34.627625 99.586296 34.627666 100.04755 34.634766 101.28577 34.641865 102.52399 34.645397 104.290825 34.634766 105.86255 34.624134 107.43427 34.581615 109.34661 34.570984 110.716125 34.560352 112.08564 34.54262 112.96206 34.570984 114.07965 34.599346 115.19724 34.670197 116.35379 34.74115 117.42169 34.812103 118.48959 34.89735 119.33042 34.996704 120.48706 35.096058 121.6437 35.237957 123.11619 35.33728 124.36151 35.436604 125.606834 35.514587 126.72787 35.59265 127.958984 35.670715 129.19011 35.77016 130.24037 35.805664 131.74823 35.841167 133.25609 35.841167 135.58702 35.805664 137.00616 35.77016 138.42531 35.652985 139.25545 35.59265 140.26306 35.53232 141.27068 35.468494 141.92355 35.443665 143.05182 35.418835 144.18008 35.447193 146.09247 35.443665 147.03265 35.440136 147.97284 35.426014 148.08978 35.422485 148.69293 35.418957 149.29608 35.440258 149.463 35.422485 150.65155 35.404713 151.8401 35.276825 154.06097 35.315857 155.82428 35.35489 157.58759 35.52895 159.82994 35.656677 161.23138 35.784405 162.63283 35.933228 163.31052 36.082214 164.23297 36.2312 165.15543 36.366077 165.79755 36.5506 166.76611 36.73512 167.73468 37.00481 169.17516 37.18933 170.04437 37.37385 170.91359 37.53 171.36766 37.657715 171.98145 37.78543 172.59523 37.849213 173.18074 37.955627 173.72711 38.062042 174.27348 38.189777 174.80202 38.296204 175.2597 38.40263 175.71739 38.50191 176.08293 38.594177 176.4732 38.686443 176.86348 38.74333 177.24298 38.849792 177.60132 38.956257 177.95966 39.083984 178.30745 39.23297 178.62323 39.381958 178.93901 39.498943 179.14827 39.743713 179.49597 39.988483 179.84367 40.35033 180.37596 40.7016 180.70947 41.052868 181.04298 41.49651 181.27707 41.85132 181.49701 42.206127 181.71695 42.404713 181.81981 42.830444 182.02911 43.256176 182.23842 43.923176 182.58253 44.4057 182.75287 44.888226 182.9232 45.292725 182.95882 45.725586 183.05109 46.158447 183.14336 46.474255 183.21423 47.00287 183.30646 47.531483 183.39868 48.251575 183.46962 48.897278 183.60443 49.54298 183.73924 50.2065 183.96635 50.877075 184.11536 51.54765 184.26436 52.342396 184.39912 52.920715 184.49847 53.499035 184.59782 53.892857 184.63342 54.346985 184.71149 54.801113 184.78955 55.24458 184.88173 55.645477 184.96686 56.046375 185.05199 56.37628 185.13707 56.75238 185.22223 57.12848 185.30739 57.42308 185.41399 57.90207 185.47784 58.381058 185.5417 59.140255 185.57704 59.626312 185.60541 60.11237 185.63377 60.25787 185.6338 60.81842 185.64801 61.37897 185.66222 62.329716 185.64095 62.989624 185.69061 63.649532 185.74028 64.13922 185.86082 64.77786 185.94598 65.416504 186.03114 66.07641 186.11644 66.82147 186.2016 67.566536 186.28676 68.43223 186.35765 69.24826 186.45697 70.06429 186.55629 70.585884 186.64854 71.71765 186.79755 72.84942 186.94655 74.83613 187.20201 76.03885 187.35101 77.24157 187.50002 77.98315 187.59227 78.93399 187.69159 79.884834 187.79091 80.83568 187.8618 81.74393 187.94696 82.652176 188.03212 83.542625 188.15288 84.383484 188.20258 85.22434 188.25227 85.76725 188.24518 86.78906 188.24518 87.810875 188.24518 89.19806 188.24518 90.51434 188.20258 91.83063 188.15997 93.1647 188.08183 94.68677 187.98956 96.20883 187.8973 97.99694 187.73767 99.64673 187.64899 101.29652 187.5603 103.1699 187.52484 104.58551 187.45746 106.00112 187.39008 106.930565 187.2979 108.14038 187.24469 109.3502 187.19148 110.47848 187.18085 111.84442 187.13824 113.210365 187.09564 114.90269 187.0423 116.33603 186.98907 117.76937 186.93585 119.38362 186.85437 120.44446 186.81891 121.505295 186.78345 121.94532 186.7834 122.70105 186.7763 123.45678 186.76921 124.26928 186.755 124.97885 186.7763 125.68842 186.7976 126.28796 186.87575 126.958496 186.90411 127.629036 186.93248 128.17186 186.91101 129.00208 186.94647 129.83229 186.98193 130.93575 187.08849 131.93982 187.11688 132.9439 187.14528 133.94444 187.10979 135.02655 187.11688 136.10866 187.12398 137.46742 187.13109 138.43243 187.15948 139.39745 187.18788 139.96869 187.21632 140.81665 187.2873 141.66461 187.35826 142.61195 187.45755 143.5202 187.58527 144.42845 187.71298 145.36143 187.90457 146.26614 188.05359 147.17085 188.2026 148.0473 188.35875 148.94849 188.47937 149.84967 188.59999 150.59117 188.67093 151.67328 188.77734 152.75539 188.88376 153.2556 189.06111 155.4411 189.11786 157.6266 189.1746 162.66464 189.15688 164.78629 189.11786 166.90793 189.07884 167.2272 188.97241 168.17096 188.88373 169.11472 188.79504 169.69662 188.68155 170.44879 188.58575 171.20096 188.48996 171.94243 188.41895 172.68396 188.30896 173.42549 188.19897 174.19904 188.06776 174.89798 187.92584 175.59692 187.78392 176.27092 187.59938 176.8776 187.45746 177.48427 187.31554 178.0378 187.18071 178.53806 187.07428 179.03831 186.96785 179.37889 186.93599 179.87915 186.81891 180.37941 186.70183 180.96483 186.51015 181.53958 186.37177 182.11433 186.23338 182.77061 186.09856 183.32764 185.98859 183.88466 185.87862 184.31047 185.81487 184.88168 185.71198 185.4529 185.60909 186.09854 185.46704 186.75491 185.37122 187.41129 185.27539 188.15646 185.22572 188.81995 185.13702 189.48343 185.04832 190.22842 184.93127 190.73578 184.83905 191.24313 184.74683 191.50575 184.66881 191.86407 184.58368 192.2224 184.49855 192.50258 184.43477 192.88574 184.32831 193.2689 184.22185 193.81535 184.04077 194.16306 183.94495 194.51076 183.84912 194.70944 183.80655 194.97198 183.75336 195.23453 183.70016 195.5006 183.65771 195.73831 183.6258 195.97603 183.59387 196.17827 183.60086 196.39825 183.56183 196.61824 183.5228 196.78502 183.46257 197.0582 183.3916 197.33138 183.32063 197.78185 183.2212 198.0373 183.13605 198.29274 183.05089 198.39926 182.9729 198.59085 182.88068 198.78244 182.78845 198.95972 182.80621 199.1868 182.5827 199.41388 182.35919 199.77592 181.90862 199.95334 181.53961 200.13075 181.17061 200.15909 180.78381 200.25131 180.36871 200.34354 179.95361 200.40027 179.61665 200.50668 179.04901 200.6131 178.48137 200.78337 177.56244 200.88983 176.96283 200.99629 176.36322 201.08159 175.96582 201.14545 175.45135 201.2093 174.93689 201.24464 174.51822 201.27301 173.87604 201.30138 173.23386 201.31561 172.67326 201.31561 171.59827 201.31561 170.52327 201.33687 168.74944 201.27301 167.42609 201.20915 166.10274 201.02823 165.12346 200.93243 163.65814 200.83664 162.19283 200.7621 160.41882 200.69824 158.63422 200.63438 156.84961 200.59184 154.61803 200.54929 152.9505 200.50673 151.28297 200.50673 150.50595 200.44287 148.62909 200.37901 146.75223 200.23706 143.55196 200.1661 141.68933 200.09515 139.8267 200.04555 138.8831 200.01715 137.45331 199.98875 136.02351 199.9922 134.55453 199.99573 133.11053 199.99925 131.66653 200.00284 130.20139 200.03833 128.7893 200.07382 127.37723 200.14485 125.96854 200.20871 124.63806 200.27257 123.30759 200.36475 122.47397 200.42151 120.80646 200.47827 119.13895 200.52798 116.4318 200.54929 114.632996 200.57059 112.83419 200.60605 112.05363 200.54929 110.01361 200.49252 107.973595 200.32933 104.656456 200.20871 102.39288 200.08809 100.12931 199.95328 98.436775 199.82556 96.43219 199.69785 94.427605 199.59494 92.34861 199.44238 90.36536 199.28983 88.3821 199.08763 86.459175 198.91022 84.53265 198.7328 82.60613 198.54462 80.92789 198.37787 78.80621 198.21112 76.68454 198.00905 73.59076 197.90973 71.80261 197.81041 70.014465 197.8068 69.184265 197.78192 68.07733 197.75705 66.9704 197.7641 66.58018 197.76053 65.16101 197.75696 63.74184 197.7818 60.765076 197.76053 59.562317 197.73926 58.35956 197.6968 58.512104 197.63293 57.944458 197.56908 57.376812 197.49446 56.851807 197.37738 56.156433 197.2603 55.46106 197.04747 54.368267 196.93042 53.772217 196.81337 53.176167 196.78857 53.013 196.67505 52.58014 196.56152 52.147278 196.36282 51.505024 196.24927 51.17505 196.13571 50.845074 196.10724 50.82022 195.99368 50.60028 195.88013 50.38034 195.70276 50.07892 195.56793 49.855408 195.4331 49.631897 195.31248 49.454365 195.18475 49.259216 195.05702 49.064068 194.908 48.819324 194.80157 48.68451 194.69514 48.549694 194.62779 48.52838 194.5462 48.450317 194.46461 48.372253 194.39363 48.297718 194.31204 48.216125 194.23045 48.134533 194.21632 48.06718 194.05667 47.960754 193.89702 47.85433 193.68762 47.701763 193.35413 47.577576 193.02063 47.45339 192.54172 47.318523 192.05566 47.215637 191.56961 47.11275 191.42415 47.06316 190.4378 46.960266 189.45146 46.857372 187.52835 46.67633 186.13757 46.598267 184.7468 46.520203 186.39319 46.509613 182.09314 46.491882 177.79309 46.47415 164.69412 46.530914 160.33728 46.491882 155.98044 46.45285 157.32869 46.364117 155.95209 46.25769 154.57549 46.151264 153.66003 46.030712 152.07764 45.853333 150.49524 45.675953 148.24937 45.37437 146.4577 45.19342 144.66603 45.01247 142.73961 44.842175 141.32758 44.76764 139.91554 44.693104 139.38335 44.771046 137.98547 44.746216 136.5876 44.721386 134.60785 44.643482 132.94034 44.618652 131.27283 44.593822 129.33218 44.61853 127.98041 44.59723 126.628624 44.575928 125.90112 44.522766 124.82965 44.490845 123.75818 44.458923 122.615944 44.44826 121.551575 44.4057 120.487206 44.36314 119.45103 44.274506 118.44342 44.235474 117.435814 44.19644 116.71928 44.21764 115.50592 44.17151 114.292564 44.125378 112.63213 43.990612 111.1633 43.95868 109.694466 43.926746 107.89919 43.905415 106.6929 43.97992 105.48661 44.054424 104.7593 44.249584 103.92554 44.4057 103.091774 44.561817 102.598625 44.703754 101.69034 44.916626 100.78205 45.129498 99.5899 45.470043 98.47583 45.682922 97.36176 45.8958 96.01353 46.073284 95.00592 46.19391 93.998314 46.314533 93.508705 46.349915 92.430176 46.406677 91.35165 46.46344 89.62393 46.470623 88.53473 46.534485 87.445526 46.598347 86.75358 46.690533 85.89496 46.789856 85.03634 46.88918 84.24869 47.023975 83.382996 47.130432 82.5173 47.23689 81.580666 47.30083 80.700806 47.42859 79.820946 47.556347 78.95534 47.747986 78.10385 47.896973 77.252365 48.04596 76.603065 48.166424 75.59189 48.32251 74.58071 48.478596 72.97346 48.67738 72.036804 48.833496 71.10015 48.989613 70.663826 49.1173 69.971985 49.259216 69.28014 49.401134 68.74436 49.52177 67.88577 49.684998 67.02718 49.848225 65.65772 50.09666 64.820435 50.238586 63.983143 50.380512 63.5255 50.444336 62.86203 50.53656 62.19856 50.628784 61.701756 50.635815 60.8396 50.79193 59.977444 50.948048 58.54768 51.30296 57.689087 51.473267 56.830494 51.643574 56.372787 51.707367 55.68805 51.81378 55.00331 51.920197 54.219265 52.00533 53.580658 52.111755 52.94205 52.21818 52.409897 52.345905 51.856415 52.45233 51.302933 52.558758 50.703262 52.67934 50.259766 52.750305 49.81627 52.82127 49.631824 52.83551 49.195435 52.878113 48.759045 52.920715 49.436657 52.98462 47.64142 53.00592 45.84618 53.02722 40.02057 52.97756 38.42401 53.00592 36.827454 53.034283 38.182728 53.10512 38.062073 53.176086 37.941418 53.24705 37.820698 53.325245 37.700073 53.4317 37.57945 53.53816 37.469574 53.6729 37.338318 53.81482 37.20706 53.956738 37.02962 54.134216 36.912537 54.283203 36.795452 54.43219 36.724487 54.55266 36.635803 54.70874 36.54712 54.86482 36.465595 55.06355 36.380432 55.219666 36.29527 55.375782 36.20998 55.51062 36.124817 55.645447 36.039654 55.780273 35.975872 55.844135 35.869446 56.028625 35.76302 56.213116 35.578533 56.5466 35.486267 56.75238 35.394 56.95816 35.35135 57.11429 35.315857 57.263306 35.280365 57.412323 35.294575 57.52586 35.273315 57.646484 35.252056 57.76711 35.213123 57.859344 35.188293 57.98706 35.163464 58.114777 35.14916 58.270863 35.12433 58.41278 35.0995 58.5547 35.07834 58.682434 35.039307 58.838562 35.000275 58.99469 34.92917 59.1686 34.890137 59.34955 34.851105 59.5305 34.829945 59.729145 34.805115 59.924255 34.780285 60.119366 34.75534 60.364075 34.74115 60.520203 34.72696 60.67633 34.7235 60.35367 34.71997 60.861023 34.716442 61.368378 34.631287 62.97185 34.71997 63.56433 34.808655 64.15681 35.053394 64.22784 35.252075 64.41589 35.450756 64.60395 35.91205 64.69269 35.91205 64.69269" fill="#FF0000" stroke="#000000" fill-opacity="0.000000" stroke-opacity="1.000000" stroke-width="5" stroke-linecap="round" />
<path d="M120.50845 56.09265C120.480064 56.177776 120.43748 56.191944 120.42328 56.348022 120.40908 56.5041 120.39488 56.73465 120.42328 57.029114 120.451675 57.323578 120.5369 57.657104 120.59366 58.114807 120.65041 58.57251 120.72836 59.271534 120.763824 59.77533 120.799286 60.279125 120.799324 60.587666 120.80643 61.137573 120.81353 61.68748 120.78513 62.570942 120.80643 63.074768 120.82772 63.578594 120.849045 63.6709 120.934204 64.16052 121.01936 64.65015 121.1542 65.41647 121.31738 66.01251 121.48057 66.60855 121.750145 67.22939 121.91333 67.736755 122.076515 68.24412 122.154594 68.599 122.29651 69.0567 122.43842 69.514404 122.55905 69.876305 122.76483 70.48297 122.97061 71.08964 123.30767 72.07584 123.53119 72.69672 123.75471 73.31759 123.88952 73.700836 124.10593 74.20819 124.322334 74.715546 124.581276 75.22996 124.82965 75.740845 125.078026 76.25173 125.340706 76.79098 125.59619 77.2735 125.85168 77.75602 126.029045 78.05767 126.36255 78.63599 126.69605 79.2143 127.12891 80.02673 127.59723 80.74341 128.06555 81.46008 128.70064 82.269035 129.17249 82.936035 129.64433 83.603035 129.89973 84.01809 130.42834 84.74542 130.95695 85.472755 131.812 86.618835 132.34418 87.30005 132.87636 87.98126 133.14604 88.24377 133.62146 88.8327 134.09688 89.42164 134.80644 90.3157 135.19672 90.83368 135.58699 91.35166 135.70053 91.61774 135.96307 91.94061 136.22562 92.26349 136.52716 92.51902 136.77197 92.770935 137.01678 93.02285 137.20132 93.18601 137.43195 93.45209 137.66257 93.71816 137.97119 94.0871 138.15567 94.36737 138.34015 94.647644 138.43236 94.935036 138.53882 95.13373 138.64528 95.33242 138.70927 95.431786 138.79443 95.55951 138.8796 95.68723 138.97885 95.80783 139.0498 95.900085 139.12076 95.99234 139.18472 95.94983 139.22018 96.11304 139.25565 96.276245 139.22002 96.72324 139.26257 96.87933 139.30513 97.03542 139.3904 96.985695 139.47556 97.04956 139.56071 97.11343 139.56775 97.17736 139.77353 97.26251 139.97931 97.347664 140.2774 97.50372 140.71027 97.560486 141.14313 97.61725 141.85982 97.58179 142.3707 97.60309 142.88158 97.62439 143.09793 97.61733 143.77557 97.68829 144.45322 97.759254 145.66663 97.92245 146.43652 98.02887 147.20642 98.13529 147.70312 98.19202 148.39496 98.32684 149.08679 98.46167 149.87442 98.65688 150.58755 98.83783 151.30069 99.018776 151.75842 99.189026 152.67377 99.41254 153.58911 99.63605 155.1288 100.0015 156.07965 100.178894 157.0305 100.356285 157.59474 100.370445 158.37885 100.47687 159.16295 100.58329 159.97888 100.70389 160.78424 100.817444 161.5896 100.931 162.18568 101.03756 163.21103 101.1582 164.23637 101.27885 165.92511 101.47037 166.93628 101.54132 167.94745 101.612274 168.48688 101.57682 169.27808 101.58392 170.06927 101.59103 170.88521 101.615845 171.68347 101.58392 172.48174 101.552 173.09555 101.44562 174.06766 101.392395 175.03976 101.33917 175.59671 101.28589 177.51614 101.26459 179.43558 101.243286 183.88121 101.257484 185.58423 101.26459 187.28725 101.27169 186.38602 101.30719 187.73422 101.30719 189.08243 101.30719 192.25789 101.29652 193.6735 101.26459 195.0891 101.23266 195.35506 101.17947 196.22784 101.1156 197.10063 101.051735 197.98419 100.9772 198.91022 100.88141 199.83624 100.785614 200.6735 100.65792 201.78397 100.54083 202.89444 100.423744 204.56898 100.28178 205.57303 100.178894 206.57707 100.07601 207.0951 99.97675 207.80823 99.92352 208.52136 99.87029 208.67747 99.87017 209.85184 99.8595 211.0262 99.84882 213.83257 99.824005 214.85437 99.8595 215.87617 99.89499 215.62436 99.99439 215.9827 100.07245 216.34103 100.150505 216.66379 100.249756 217.0044 100.32782 217.345 100.40588 217.71053 100.46987 218.0263 100.54083 218.34209 100.61179 218.6649 100.675575 218.89905 100.7536 219.1332 100.83163 219.27153 100.923805 219.43118 101.00897 219.59084 101.09414 219.77177 101.17942 219.85693 101.26459 219.9421 101.349754 219.93147 101.310646 219.94214 101.51996 219.9528 101.72927 219.96709 102.14791 219.92096 102.52045 219.87483 102.89298 219.7292 103.336525 219.66534 103.75519 219.60149 104.17385 219.58391 104.56409 219.53778 105.03241 219.49165 105.50073 219.43471 105.85555 219.38858 106.565125 219.34245 107.2747 219.31775 108.40287 219.26099 109.289856 219.20422 110.17684 219.16512 110.663 219.04803 111.887024 218.93095 113.111046 218.70746 115.225464 218.55847 116.63397 218.40948 118.04248 218.3244 118.83374 218.15411 120.33807 217.98383 121.84241 217.68576 124.19824 217.53674 125.65997 217.38773 127.121704 217.36996 127.62899 217.25998 129.10846 217.15 130.58794 216.97972 132.69896 216.87683 134.5368 216.77394 136.37465 216.7207 138.5673 216.64264 140.1355 216.56458 141.70369 216.49004 142.71486 216.40845 143.94598 216.32686 145.17711 216.25597 146.15985 216.15308 147.52222 216.05019 148.88458 215.9224 150.78616 215.7911 152.12018 215.65982 153.4542 215.54631 154.36256 215.36536 155.5263 215.1844 156.69005 214.9112 157.91405 214.70541 159.1026 214.49963 160.29115 214.30806 161.52232 214.13068 162.65765 213.9533 163.79298 213.78304 164.85023 213.64111 165.91461 213.49919 166.97899 213.4033 167.8305 213.27911 169.04388 213.15492 170.25726 213.02011 172.07732 212.89597 173.19489 212.77182 174.31245 212.6442 174.93329 212.53421 175.74933 212.42422 176.56537 212.33182 177.31056 212.23602 178.09113 212.14023 178.87169 212.02333 179.65572 211.95947 180.43268 211.89561 181.20964 211.87415 181.98297 211.85284 182.75287 211.83154 183.52277 211.821 183.13617 211.83167 185.05206 211.84233 186.96796 211.8601 192.31818 211.91687 194.24823 211.97363 196.17828 212.04453 195.85185 212.17224 196.63239 212.29996 197.41292 212.51291 198.25024 212.6832 198.93146 212.85349 199.61267 212.88884 200.10233 213.19394 200.71967 213.49904 201.337 214.12352 202.12814 214.51382 202.6355 214.90413 203.14285 215.19156 203.40547 215.53574 203.7638 215.87991 204.12212 216.23473 204.4094 216.57886 204.78546 216.92299 205.16153 217.26 205.6122 217.60056 206.0202 217.94112 206.4282 218.33131 206.78287 218.62225 207.23346 218.9132 207.68405 219.11911 208.21283 219.34619 208.72375 219.57327 209.23468 219.78963 209.73137 219.98474 210.29901 220.17986 210.86665 220.33595 211.29588 220.5169 212.12964 220.69786 212.9634 220.93562 214.43233 221.07043 215.30157 221.20525 216.17082 221.21228 216.57173 221.3258 217.34515 221.43933 218.11858 221.56 218.98775 221.75159 219.94214 221.94318 220.89653 222.27306 222.13126 222.47531 223.07147 222.67757 224.01169 222.74864 224.4552 222.96509 225.58344 223.18153 226.71167 223.52922 228.78362 223.77399 229.84088 224.01875 230.89815 224.2386 231.39136 224.43372 231.92706 224.62883 232.46277 224.73535 232.76064 224.9447 233.05511 225.15405 233.3496 225.34921 233.442 225.68982 233.69391 226.03043 233.94582 226.63354 234.29341 226.98831 234.56659 227.34308 234.83977 227.50975 235.0775 227.81842 235.33295 228.12709 235.5884 228.53519 235.8687 228.84033 236.0993 229.14548 236.32991 229.42218 236.54277 229.64926 236.71661 229.87634 236.89046 230.0538 237.0927 230.20282 237.1424 230.35184 237.1921 230.45827 237.32704 230.5434 237.01483 230.62852 236.70262 230.71356 235.26917 230.71356 235.26917" fill="#FF0000" stroke="#888888" fill-opacity="0.000000" stroke-opacity="1.000000" stroke-width="5" stroke-linecap="round" />
<path d="M143.66919 54.2406C143.76851 54.36833 143.83235 54.44286 143.96716 54.62378 144.10197 54.8047 144.34328 55.0813 144.47809 55.32611 144.6129 55.570923 144.61993 55.698822 144.77606 56.09265 144.93219 56.48648 145.18065 57.050488 145.41483 57.689087 145.649 58.327686 145.9683 59.296276 146.18115 59.924255 146.394 60.552235 146.5216 60.924786 146.6919 61.45697 146.86218 61.989155 147.03966 62.52486 147.20288 63.11737 147.3661 63.70988 147.52219 64.36984 147.6712 65.012024 147.82022 65.654205 147.94086 66.31765 148.09698 66.97046 148.25311 67.62327 148.43765 68.28672 148.60794 68.928894 148.77823 69.57107 148.9271 70.046486 149.11868 70.82349 149.31027 71.60049 149.56586 72.84582 149.75745 73.59088 149.94904 74.335945 150.0695 74.743965 150.26819 75.293884 150.46687 75.8438 150.70471 76.24467 150.94952 76.89038 151.19434 77.536095 151.50645 78.54728 151.73706 79.16815 151.96767 79.789024 152.13805 80.161476 152.33319 80.6156 152.52834 81.069725 152.727 81.51678 152.90796 81.89288 153.08891 82.26899 153.277 82.64517 153.41891 82.87225 153.56084 83.099335 153.66014 83.14895 153.75946 83.25537 153.85878 83.36179 153.9297 83.42567 154.01483 83.5108 154.09996 83.59594 154.11407 83.60297 154.2702 83.766174 154.42633 83.92938 154.70676 84.28428 154.95157 84.49005 155.19638 84.69582 155.49783 84.87307 155.73907 85.00079 155.98032 85.12852 156.19327 85.19254 156.39905 85.25641 156.60483 85.320274 156.77864 85.34141 156.97379 85.38397 157.16893 85.42654 157.32867 85.42661 157.56995 85.51178 157.81122 85.59695 158.17664 85.79559 158.42145 85.89496 158.66626 85.99432 158.71599 86.00861 159.03882 86.10797 159.36165 86.20733 159.9008 86.39178 160.35846 86.49109 160.81612 86.5904 161.13188 86.668396 161.78473 86.70386 162.43758 86.73932 163.62273 86.66836 164.27554 86.70386 164.92836 86.73936 165.28297 86.838806 165.7016 86.91687 166.12022 86.994934 166.37926 87.058716 166.7873 87.17224 167.19533 87.28577 167.75595 87.449005 168.14978 87.59802 168.54361 87.74704 168.81679 87.90317 169.1503 88.066345 169.48381 88.22952 169.76408 88.40324 170.15082 88.57709 170.53755 88.75094 170.99886 88.92492 171.4707 89.109436 171.94255 89.29395 172.45685 89.50329 172.98193 89.684204 173.50702 89.86512 174.07126 90.02466 174.62122 90.19495 175.17117 90.365234 175.56854 90.54272 176.28168 90.70593 176.99481 90.86915 175.99075 91.09973 178.90002 91.174255 181.8093 91.24878 190.76064 91.2205 193.7373 91.153076 196.71397 91.085655 195.94044 90.86907 196.76001 90.769714 197.57957 90.67036 197.37384 90.59241 198.65466 90.556946 199.93549 90.521484 202.97612 90.507286 204.44495 90.556946 205.91377 90.606606 206.6268 90.76977 207.46765 90.85492 208.3085 90.94007 208.8408 91.01818 209.49008 91.06787 210.13936 91.11756 210.53665 91.11761 211.36331 91.153076 212.18997 91.188545 213.60916 91.23104 214.45001 91.2807 215.29086 91.33036 215.77336 91.394295 216.40845 91.45105 217.04353 91.507805 217.65382 91.55735 218.2605 91.621216 218.86717 91.68508 219.48798 91.76327 220.04852 91.83423 220.60907 91.90519 221.10576 91.96894 221.62378 92.047 222.1418 92.12505 222.56062 92.224495 223.15668 92.30255 223.75273 92.38061 224.67856 92.451454 225.20007 92.51532 225.72159 92.579185 225.9487 92.621864 226.28577 92.68573 226.62283 92.749596 226.94926 92.82754 227.22247 92.8985 227.49568 92.96946 227.65184 93.00504 227.92502 93.11151 228.1982 93.21798 228.57417 93.34571 228.86154 93.53729 229.14891 93.728874 229.447 93.93459 229.64926 94.26099 229.85152 94.58738 229.96152 95.094765 230.07504 95.49567 230.18857 95.89657 230.24525 96.22645 230.33041 96.66638 230.41557 97.106316 230.50084 97.635 230.586 98.135254 230.67116 98.635506 230.77045 98.958305 230.84137 99.66791 230.9123 100.37751 230.96187 101.60522 231.01154 102.39288 231.0612 103.18055 231.07544 103.71985 231.13934 104.39392 231.20325 105.06799 231.30977 105.69229 231.39493 106.43732 231.48009 107.18234 231.5084 107.813866 231.6503 108.864075 231.79219 109.91428 232.10432 111.667114 232.24625 112.73859 232.38817 113.81006 232.43088 114.44143 232.50183 115.29291 232.57278 116.14439 232.60104 116.99595 232.672 117.84747 232.74295 118.699 232.84242 119.57891 232.92758 120.40204 233.01274 121.22517 233.09073 121.99862 233.18295 122.786255 233.27518 123.57389 233.38867 124.37217 233.48093 125.12787 233.57318 125.88357 233.67975 126.6215 233.73651 127.320435 233.79327 128.01936 233.79314 128.62253 233.8215 129.32147 233.84987 130.02042 233.89249 130.3965 233.90668 131.5141 233.92087 132.6317 233.92441 134.86688 233.90668 136.02704 233.88895 137.1872 233.82512 137.66968 233.8003 138.47504 233.77547 139.2804 233.7719 139.9261 233.75769 140.85919 233.74348 141.79228 233.73639 143.25398 233.71509 144.07355 233.69379 144.89311 233.68668 145.11662 233.62991 145.77655 233.57315 146.43648 233.45613 147.40517 233.37454 148.03314 233.29295 148.66112 233.25388 148.92003 233.14035 149.54443 233.02682 150.16884 232.81049 151.11612 232.69339 151.7796 232.5763 152.44308 232.5194 152.947 232.4378 153.52533 232.35622 154.10365 232.26062 154.50807 232.20386 155.24957 232.1471 155.99107 232.13986 157.0909 232.09726 157.9743 232.05466 158.85771 231.9731 159.52824 231.94827 160.55005 231.92345 161.57185 231.9944 163.01591 231.94827 164.10516 231.90215 165.19441 231.75664 166.29431 231.67148 167.08551 231.58632 167.87671 231.50827 168.24214 231.43732 168.85236 231.36636 169.46257 231.33086 169.98396 231.24573 170.74677 231.1606 171.50957 231.03297 172.50313 230.92654 173.42914 230.82011 174.35515 230.69586 175.32365 230.60718 176.30286 230.5185 177.28206 230.4689 178.19388 230.39441 179.30438 230.31992 180.41489 230.20634 181.95474 230.16022 182.96588 230.11409 183.97702 230.12474 184.62971 230.11765 185.37122 230.11055 186.11272 230.03958 186.60593 230.11765 187.41486 230.19571 188.22379 230.45119 189.31651 230.586 190.2248 230.72081 191.13307 230.84142 192.1266 230.92654 192.86456 231.01167 193.60252 231.05417 194.06721 231.09674 194.65259 231.13931 195.23796 231.13934 195.80562 231.18195 196.37683 231.22455 196.94804 231.29556 197.5406 231.35233 198.0799 231.40909 198.61919 231.48703 199.13356 231.52249 199.61255 231.55795 200.09154 231.558 200.25136 231.5651 200.95386 231.57219 201.65636 231.55089 203.13574 231.5651 203.82758 231.5793 204.51941 231.60774 204.6472 231.6503 205.10486 231.69286 205.56252 231.7708 206.04846 231.82047 206.57355 231.87013 207.09863 231.91278 207.70898 231.94827 208.25537 231.98376 208.80176 231.98378 209.32326 232.03345 209.85187 232.08311 210.38048 232.20369 210.94807 232.24625 211.42706 232.2888 211.90605 232.26752 212.34967 232.28882 212.72577 232.31012 213.10187 232.35982 212.84279 232.37402 213.68365 232.38823 214.52452 232.35982 216.97267 232.37402 217.77094 232.38823 218.5692 232.42374 218.23912 232.45923 218.47327 232.49472 218.70741 232.54445 218.93103 232.587 219.17584 232.62956 219.42065 232.66493 219.67961 232.7146 219.94214 232.76427 220.20467 232.82822 220.45299 232.88498 220.75104 232.94174 221.04909 232.99129 221.43593 233.05515 221.73041 233.119 222.02489 233.19719 222.23409 233.26816 222.51788 233.33913 222.80168 233.3816 223.06422 233.48093 223.43323 233.58025 223.80223 233.75052 224.38771 233.86407 224.73187 233.97763 225.07603 234.0771 225.28181 234.16226 225.49823 234.24742 225.71465 234.27571 225.81398 234.37503 226.0304 234.47435 226.24681 234.65178 226.61221 234.75821 226.79669 234.86464 226.98117 234.91422 227.03084 235.01358 227.13727 235.11295 227.2437 235.28342 227.34297 235.35437 227.43524 235.42532 227.52751 235.41096 227.6057 235.43933 227.69086 235.4677 227.77602 235.48903 227.86816 235.52454 227.94623 235.56004 228.02429 235.61685 228.10248 235.65234 228.15924 235.68784 228.216 235.70915 228.25134 235.73752 228.2868 235.76588 228.32227 235.78705 228.34361 235.82251 228.37201 235.85797 228.4004 235.92192 228.42882 235.95032 228.45721 235.97871 228.48561 235.9787 228.51399 235.99289 228.54236 236.00708 228.57072 236.01419 228.5919 236.03549 228.62738 236.0568 228.66286 236.0923 228.7197 236.1207 228.75519 236.1491 228.79068 236.17044 228.78358 236.2059 228.84033 236.24136 228.89708 236.2767 229.03185 236.33347 229.0957 236.39023 229.15956 236.48969 229.20221 236.54645 229.22351 236.60321 229.24481 236.67404 229.22351 236.67404 229.22351" fill="#FF0000" stroke="#888888" fill-opacity="0.000000" stroke-opacity="1.000000" stroke-width="5" stroke-linecap="round" />
<path d="M128.66153 179.198C128.67572 179.0277 128.60478 179.03831 128.7041 178.68707 128.80342 178.33583 128.96654 177.77531 129.25745 177.09058 129.54836 176.40584 130.09828 175.34499 130.44955 174.57861 130.80083 173.81224 130.96771 173.33324 131.36508 172.49237 131.76245 171.6515 132.31575 170.61201 132.83374 169.53345 133.35173 168.45488 133.8592 167.48268 134.47302 166.02094 135.08684 164.55919 135.97379 162.15376 136.5166 160.763 137.05942 159.37224 137.31125 158.71944 137.72992 157.67633 138.14859 156.63322 138.578 155.57587 139.0286 154.5044 139.47919 153.43292 139.90839 152.31897 140.43347 151.2475 140.95856 150.17603 141.57953 149.24635 142.17914 148.07556 142.77875 146.90477 143.46352 145.4893 144.03116 144.22272 144.5988 142.95613 145.0493 141.7569 145.58502 140.47607 146.12074 139.19525 146.69197 137.80083 147.24545 136.53778 147.79893 135.27473 148.3631 133.99406 148.90591 132.89777 149.44873 131.80147 150.0447 130.81508 150.50238 129.96002 150.96007 129.10497 151.28664 128.43794 151.65207 127.767395 152.0175 127.096855 152.38985 126.57894 152.69495 125.93677 153.00005 125.29459 153.22368 124.48205 153.4827 123.91437 153.74171 123.34669 153.97227 123.055786 154.24902 122.5307 154.52577 122.005615 154.88771 121.23929 155.14316 120.763855 155.3986 120.28842 155.60072 119.97611 155.78168 119.6781 155.96263 119.38009 156.12596 119.11413 156.22885 118.97577 156.33174 118.83741 156.39905 118.84796 156.39905 118.84796 156.39905 118.84796 156.37784 118.97577 156.37784 118.97577" fill="#FF0000" stroke="#888888" fill-opacity="0.000000" stroke-opacity="1.000000" stroke-width="5" stroke-linecap="round" />
<path d="M155.33472 118.720215C155.44824 118.64215 155.50853 118.56762 155.6753 118.48602 155.84206 118.40443 156.07272 118.34771 156.33527 118.23065 156.59781 118.113594 156.95255 117.911415 157.25055 117.78369 157.54855 117.65597 157.80751 117.56009 158.12329 117.464294 158.43907 117.3685 158.6804 117.28341 159.1452 117.20892 159.61 117.13444 160.24861 117.11322 160.91205 117.017395 161.57549 116.92157 162.32047 116.76174 163.12582 116.63397 163.93118 116.5062 165.04526 116.32172 165.7442 116.25079 166.44315 116.17987 166.60275 116.21549 167.31946 116.208435 168.03616 116.20138 169.21068 116.23684 170.04443 116.208435 170.87819 116.18003 171.56633 116.09125 172.32202 116.038025 173.07771 115.9848 173.84065 115.94586 174.57861 115.8891 175.31657 115.83234 176.02605 115.75778 176.74982 115.69745 177.47359 115.637115 178.05196 115.58032 178.9212 115.5271 179.79045 115.47388 181.11737 115.41004 181.96533 115.37811 182.8133 115.34618 182.9588 115.34614 184.00897 115.33551 185.05914 115.32488 185.40675 115.31786 188.26636 115.31433 191.12596 115.3108 198.8037 115.339165 201.16663 115.31433 203.52956 115.2895 201.94012 115.24698 202.44391 115.165344 202.9477 115.08371 203.65004 114.90259 204.18933 114.824524 204.72862 114.74646 205.1545 114.71112 205.67963 114.69696 206.20476 114.6828 207.03499 114.7041 207.34009 114.73956 207.64519 114.775024 207.4464 114.84586 207.51025 114.90973 207.57411 114.973595 207.65938 115.06598 207.72324 115.12274 207.7871 115.179504 207.83667 115.22195 207.89343 115.250305 207.9502 115.27866 208.01414 115.27161 208.06381 115.29291 208.11348 115.31421 208.15594 115.34261 208.1914 115.37811 208.22687 115.41361 208.24109 115.463356 208.27658 115.50592 208.31207 115.548485 208.36176 115.59802 208.40436 115.633484 208.44696 115.668945 208.4612 115.69739 208.53217 115.71869 208.60313 115.73999 208.77338 115.697426 208.83014 115.76129 208.8869 115.82516 208.84438 115.92802 208.87274 116.10187 208.90111 116.27572 208.97194 116.54538 209.0003 116.80438 209.02867 117.063385 209.03581 115.72935 209.04291 117.65588 209.05 119.58242 209.0216 126.32354 209.04291 128.36359 209.06421 130.40364 209.12811 129.25758 209.17072 129.89618 209.21332 130.53477 209.27719 130.886 209.2985 132.19519 209.3198 133.50438 209.28433 136.39954 209.2985 137.75128 209.31265 139.10303 209.33382 139.53223 209.38348 140.30566 209.43315 141.0791 209.50421 141.7178 209.59647 142.3919 209.68872 143.06601 209.87318 143.77907 209.93704 144.35028 210.0009 144.9215 209.97252 145.23373 209.97961 145.81915 209.98671 146.40457 210.00444 147.30577 209.97961 147.8628 209.95479 148.41982 209.90158 148.68236 209.83063 149.16132 209.75967 149.64027 209.66385 150.27528 209.55386 150.73651 209.44388 151.19774 209.30907 151.51 209.17072 151.92865 209.03236 152.3473 208.85149 152.81209 208.72375 153.24847 208.59602 153.68486 208.53918 154.07158 208.40436 154.547 208.26953 155.02242 208.04964 155.61848 207.91483 156.10101 207.78001 156.58354 207.68771 157.03413 207.59546 157.44214 207.5032 157.85014 207.44286 158.15164 207.36127 158.54901 207.27968 158.94638 207.16623 159.41121 207.1059 159.82635 207.04556 160.2415 207.0206 160.64604 206.9993 161.03986 206.978 161.43367 206.98872 161.80968 206.97809 162.18927 206.96745 162.56886 206.97095 162.9449 206.93549 163.31744 206.90002 163.68999 206.82918 163.90648 206.76532 164.4245 206.70146 164.94252 206.6304 165.84015 206.55234 166.42554 206.47427 167.01093 206.38213 167.41884 206.29697 167.93683 206.2118 168.45482 206.19397 168.83452 206.04138 169.53345 205.8888 170.23238 205.54109 171.39957 205.38144 172.13043 205.22179 172.8613 205.18279 173.32256 205.08347 173.91864 204.98415 174.51472 204.89194 175.11086 204.78552 175.70691 204.67911 176.30296 204.61526 176.67184 204.44495 177.49493 204.27463 178.31802 203.941 179.54915 203.76358 180.64545 203.58617 181.74174 203.44783 183.1006 203.38043 184.07275 203.31303 185.0449 203.36276 185.6978 203.35922 186.47833 203.35568 187.25887 203.32376 188.0783 203.35922 188.75592 203.39468 189.43355 203.48686 189.91612 203.57202 190.54413 203.65718 191.17213 203.80629 191.95633 203.87018 192.52399 203.93407 193.09164 203.94118 193.45691 203.95538 193.95007 203.96959 194.44324 203.99799 194.9366 203.95538 195.48297 203.91278 196.02934 203.82756 196.61102 203.6998 197.22833 203.57204 197.84564 203.40526 198.49141 203.18884 199.18683 202.97243 199.88225 202.66028 200.65219 202.4013 201.40082 202.14233 202.14944 201.86559 202.93 201.63498 203.67859 201.40437 204.42719 201.16313 205.16508 201.01764 205.8924 200.87215 206.6197 200.80466 207.03125 200.76205 208.04242 200.71945 209.05359 200.71945 211.01921 200.76205 211.95941 200.80466 212.89961 200.86151 212.9918 201.01764 213.68365 201.17377 214.3755 201.5001 215.41153 201.69879 216.11047 201.89748 216.80942 201.99684 217.13582 202.20972 217.87732 202.42259 218.61882 202.78448 219.81444 202.97607 220.55951 203.16766 221.30458 203.2102 221.76941 203.35922 222.34772 203.50824 222.92603 203.72826 223.49007 203.87018 224.02936 204.0121 224.56865 204.06883 225.08318 204.21075 225.58344 204.35268 226.0837 204.44496 226.41008 204.72171 227.03094 204.99846 227.65181 205.5803 228.64876 205.87122 229.30865 206.16212 229.96855 206.24013 230.45464 206.46716 230.99036 206.6942 231.52608 206.97801 232.04759 207.23346 232.52301 207.4889 232.99843 207.63791 233.40651 207.99982 233.8429 208.36172 234.27928 209.07141 234.97818 209.4049 235.14136 209.7384 235.30453 210.00082 234.82196 210.00082 234.82196" fill="#FF0000" stroke="#888888" fill-opacity="0.000000" stroke-opacity="1.000000" stroke-width="5" stroke-linecap="round" />
<path d="M142.73245 180.30487C142.74666 180.23395 142.7112 180.2163 142.77505 180.0921 142.83891 179.96791 142.95598 179.88618 143.11563 179.55975 143.27528 179.23332 143.4314 178.70113 143.73297 178.13348 144.03455 177.56584 144.40349 176.96277 144.92505 176.15387 145.44661 175.34497 145.95401 174.7099 146.8623 173.28009 147.7706 171.85028 149.38138 169.30995 150.37479 167.57501 151.3682 165.84007 152.0103 164.42085 152.82275 162.87042 153.63521 161.31999 154.45125 159.73065 155.24954 158.27246 156.04784 156.81427 156.88521 155.41273 157.61255 154.12128 158.33989 152.82982 158.96431 151.59521 159.61356 150.52374 160.2628 149.45227 160.79132 148.82777 161.508 147.69244 162.22467 146.55711 163.243 144.81866 163.91357 143.71173 164.58415 142.6048 164.92476 142.023 165.53143 141.05084 166.1381 140.07869 167.02856 138.65228 167.55365 137.87885 168.07874 137.10541 168.33067 136.86076 168.68195 136.41022 169.03322 135.95967 169.32776 135.61192 169.66125 135.17554 169.99475 134.73915 170.40268 134.1928 170.68295 133.79187 170.96323 133.39095 171.10872 133.10703 171.3429 132.76996 171.57707 132.43289 171.80067 132.17393 172.08804 131.76947 172.37541 131.365 172.8188 130.66605 173.06714 130.3432 173.31548 130.02036 173.42198 130.00269 173.5781 129.8324 173.7342 129.66211 173.85483 129.49179 174.00385 129.32147 174.15286 129.15115 174.31615 128.9808 174.47223 128.81049 174.62831 128.64017 174.78429 128.48404 174.94037 128.29956 175.09645 128.11508 175.33069 127.80651 175.40875 127.70361 175.48682 127.600716 175.40875 127.68219 175.40875 127.68219 175.40875 127.68219 175.14986 127.717735 175.04697 127.81 174.94408 127.90226 174.83751 128.14351 174.79138 128.23578 174.74525 128.32805 174.7702 128.36359 174.7702 128.36359" fill="#FF0000" stroke="#888888" fill-opacity="0.000000" stroke-opacity="1.000000" stroke-width="5" stroke-linecap="round" />
<path d="M173.83347 129.89618C173.86186 129.89618 173.8193 129.921 173.91867 129.89618 174.01804 129.87135 174.1529 129.78275 174.42963 129.74725 174.70636 129.71176 175.06468 129.67259 175.5791 129.68323 176.09352 129.69386 176.9059 129.67975 177.51614 129.81104 178.12639 129.94232 178.69775 130.25453 179.2406 130.47095 179.78345 130.68736 180.27657 130.9463 180.77325 131.1095 181.26994 131.27269 181.72401 131.36491 182.2207 131.45007 182.71739 131.53523 183.24243 131.59555 183.75336 131.62042 184.26428 131.6453 184.70436 131.63832 185.28625 131.5993 185.86815 131.56029 186.33997 131.4076 187.24469 131.38629 188.14941 131.36499 189.49765 131.45729 190.71457 131.4715 191.93149 131.4857 193.58829 131.52473 194.5462 131.4715 195.50412 131.41826 195.96178 131.25146 196.46204 131.1521 196.9623 131.05273 197.22485 130.97462 197.54773 130.8753 197.8706 130.77599 198.2077 130.62001 198.39929 130.55615 198.59088 130.4923 198.57664 130.5099 198.69727 130.49213 198.81789 130.47435 198.57307 130.45662 199.12299 130.44952 199.6729 130.44243 201.46811 130.46368 201.99677 130.44952 202.52542 130.43536 202.19557 130.37872 202.29492 130.36456 202.39427 130.3504 202.5929 130.36456 202.5929 130.36456" fill="#FF0000" stroke="#888888" fill-opacity="0.000000" stroke-opacity="1.000000" stroke-width="5" stroke-linecap="round" />
<path d="M201.99677 130.3432C201.99677 130.41418 201.97546 130.3397 201.99677 130.55615 202.01807 130.7726 202.06068 131.10966 202.12454 131.64185 202.1884 132.17403 202.29475 132.86942 202.37991 133.74927 202.46507 134.62912 202.57164 135.70757 202.6355 136.92096 202.69936 138.13435 202.6779 139.29112 202.76306 141.0296 202.84822 142.76808 203.0613 145.48567 203.14645 147.35187 203.23161 149.21806 203.28114 150.52736 203.27405 152.2268 203.26695 153.92625 203.17834 155.7852 203.10385 157.54852 203.02936 159.31184 202.92998 160.76665 202.82709 162.8067 202.7242 164.84676 202.55748 167.19885 202.48651 169.78882 202.41554 172.37878 202.57515 176.19646 202.4013 178.3465 202.22746 180.49654 201.745 181.56439 201.44342 182.68909 201.14185 183.81378 200.84021 184.39574 200.59186 185.09467 200.3435 185.7936 200.15202 186.33987 199.95334 186.88269 199.75465 187.4255 199.5985 187.88676 199.39978 188.35156 199.20107 188.81636 198.98456 189.21022 198.76105 189.67145 198.53754 190.13268 198.47382 190.42003 198.05872 191.11896 197.64362 191.81789 196.89842 192.67296 196.27045 193.86505 195.64247 195.05714 194.75206 197.08649 194.29083 198.27148 193.8296 199.45648 193.7089 200.05258 193.50311 200.97504 193.29733 201.89749 193.15904 203.07887 193.05615 203.80621 192.95326 204.53355 192.95671 204.7962 192.88574 205.33905 192.81477 205.8819 192.73679 206.39986 192.63037 207.0633 192.52396 207.72673 192.37851 208.23044 192.24722 209.31964 192.11594 210.40884 191.9136 212.18643 191.84265 213.59851 191.7717 215.01059 191.78954 216.6639 191.82147 217.79211 191.85341 218.92033 191.96329 219.38864 192.03424 220.36786 192.1052 221.34708 192.19046 222.48242 192.24722 223.66742 192.30399 224.85242 192.29675 225.70033 192.37482 227.47784 192.45288 229.25536 192.5559 232.53722 192.71558 234.33246 192.87526 236.1277 193.18396 237.4333 193.33295 238.24933 193.48193 239.06535 193.6095 239.22858 193.6095 239.22858" fill="#FF0000" stroke="#888888" fill-opacity="0.000000" stroke-opacity="1.000000" stroke-width="5" stroke-linecap="round" />
</svg>